<mxfile host="Electron" modified="2024-03-13T09:47:25.577Z" agent="Mozilla/5.0 (X11; Linux x86_64) AppleWebKit/537.36 (KHTML, like Gecko) draw.io/24.0.4 Chrome/120.0.6099.109 Electron/28.1.0 Safari/537.36" etag="XJn1geE61o6CBm1N51Kt" version="24.0.4" type="device">
  <diagram name="Page-1" id="PUIrV5zF7RUbN0uzkds-">
    <mxGraphModel dx="1475" dy="401" grid="1" gridSize="10" guides="1" tooltips="1" connect="1" arrows="1" fold="1" page="1" pageScale="1" pageWidth="827" pageHeight="1169" math="0" shadow="0">
      <root>
        <mxCell id="0" />
        <mxCell id="1" parent="0" />
        <mxCell id="_Uupg-VD3XOYHBeuDL6Q-136" value="" style="whiteSpace=wrap;html=1;aspect=fixed;" parent="1" vertex="1">
          <mxGeometry x="-1" y="240" width="40" height="40" as="geometry" />
        </mxCell>
        <mxCell id="_Uupg-VD3XOYHBeuDL6Q-137" value="" style="whiteSpace=wrap;html=1;aspect=fixed;" parent="1" vertex="1">
          <mxGeometry x="39" y="240" width="40" height="40" as="geometry" />
        </mxCell>
        <mxCell id="_Uupg-VD3XOYHBeuDL6Q-138" value="" style="whiteSpace=wrap;html=1;aspect=fixed;fillColor=#6B9455;" parent="1" vertex="1">
          <mxGeometry x="79" y="240" width="40" height="40" as="geometry" />
        </mxCell>
        <mxCell id="_Uupg-VD3XOYHBeuDL6Q-139" value="" style="whiteSpace=wrap;html=1;aspect=fixed;fillColor=#6B9455;" parent="1" vertex="1">
          <mxGeometry x="119" y="240" width="40" height="40" as="geometry" />
        </mxCell>
        <mxCell id="_Uupg-VD3XOYHBeuDL6Q-142" value="" style="whiteSpace=wrap;html=1;aspect=fixed;fillColor=#6B9455;" parent="1" vertex="1">
          <mxGeometry x="159" y="240" width="40" height="40" as="geometry" />
        </mxCell>
        <mxCell id="_Uupg-VD3XOYHBeuDL6Q-143" value="" style="whiteSpace=wrap;html=1;aspect=fixed;" parent="1" vertex="1">
          <mxGeometry x="279" y="240" width="40" height="40" as="geometry" />
        </mxCell>
        <mxCell id="_Uupg-VD3XOYHBeuDL6Q-144" value="" style="whiteSpace=wrap;html=1;aspect=fixed;fillColor=#6B9455;" parent="1" vertex="1">
          <mxGeometry x="199" y="240" width="40" height="40" as="geometry" />
        </mxCell>
        <mxCell id="_Uupg-VD3XOYHBeuDL6Q-145" value="" style="whiteSpace=wrap;html=1;aspect=fixed;" parent="1" vertex="1">
          <mxGeometry x="239" y="240" width="40" height="40" as="geometry" />
        </mxCell>
        <mxCell id="_Uupg-VD3XOYHBeuDL6Q-146" value="" style="whiteSpace=wrap;html=1;aspect=fixed;" parent="1" vertex="1">
          <mxGeometry x="-1" y="280" width="40" height="40" as="geometry" />
        </mxCell>
        <mxCell id="_Uupg-VD3XOYHBeuDL6Q-147" value="" style="whiteSpace=wrap;html=1;aspect=fixed;fillColor=#6B9455;" parent="1" vertex="1">
          <mxGeometry x="39" y="280" width="40" height="40" as="geometry" />
        </mxCell>
        <mxCell id="_Uupg-VD3XOYHBeuDL6Q-148" value="" style="whiteSpace=wrap;html=1;aspect=fixed;fillColor=#6B9455;" parent="1" vertex="1">
          <mxGeometry x="79" y="280" width="40" height="40" as="geometry" />
        </mxCell>
        <mxCell id="_Uupg-VD3XOYHBeuDL6Q-149" value="" style="whiteSpace=wrap;html=1;aspect=fixed;fillColor=#6B9455;" parent="1" vertex="1">
          <mxGeometry x="119" y="280" width="40" height="40" as="geometry" />
        </mxCell>
        <mxCell id="_Uupg-VD3XOYHBeuDL6Q-150" value="" style="whiteSpace=wrap;html=1;aspect=fixed;fillColor=#6B9455;" parent="1" vertex="1">
          <mxGeometry x="159" y="280" width="40" height="40" as="geometry" />
        </mxCell>
        <mxCell id="_Uupg-VD3XOYHBeuDL6Q-151" value="" style="whiteSpace=wrap;html=1;aspect=fixed;" parent="1" vertex="1">
          <mxGeometry x="279" y="280" width="40" height="40" as="geometry" />
        </mxCell>
        <mxCell id="_Uupg-VD3XOYHBeuDL6Q-152" value="" style="whiteSpace=wrap;html=1;aspect=fixed;fillColor=#6B9455;" parent="1" vertex="1">
          <mxGeometry x="199" y="280" width="40" height="40" as="geometry" />
        </mxCell>
        <mxCell id="_Uupg-VD3XOYHBeuDL6Q-153" value="" style="whiteSpace=wrap;html=1;aspect=fixed;fillColor=#6B9455;" parent="1" vertex="1">
          <mxGeometry x="239" y="280" width="40" height="40" as="geometry" />
        </mxCell>
        <mxCell id="_Uupg-VD3XOYHBeuDL6Q-154" value="" style="whiteSpace=wrap;html=1;aspect=fixed;" parent="1" vertex="1">
          <mxGeometry x="-1" y="320" width="40" height="40" as="geometry" />
        </mxCell>
        <mxCell id="_Uupg-VD3XOYHBeuDL6Q-155" value="" style="whiteSpace=wrap;html=1;aspect=fixed;fillColor=#6B9455;" parent="1" vertex="1">
          <mxGeometry x="39" y="320" width="40" height="40" as="geometry" />
        </mxCell>
        <mxCell id="_Uupg-VD3XOYHBeuDL6Q-156" value="" style="whiteSpace=wrap;html=1;aspect=fixed;fillColor=#6B9455;" parent="1" vertex="1">
          <mxGeometry x="79" y="320" width="40" height="40" as="geometry" />
        </mxCell>
        <mxCell id="_Uupg-VD3XOYHBeuDL6Q-157" value="" style="whiteSpace=wrap;html=1;aspect=fixed;fillColor=#6B9455;" parent="1" vertex="1">
          <mxGeometry x="119" y="320" width="40" height="40" as="geometry" />
        </mxCell>
        <mxCell id="_Uupg-VD3XOYHBeuDL6Q-158" value="" style="whiteSpace=wrap;html=1;aspect=fixed;fillColor=#6B9455;" parent="1" vertex="1">
          <mxGeometry x="159" y="320" width="40" height="40" as="geometry" />
        </mxCell>
        <mxCell id="_Uupg-VD3XOYHBeuDL6Q-159" value="" style="whiteSpace=wrap;html=1;aspect=fixed;" parent="1" vertex="1">
          <mxGeometry x="279" y="320" width="40" height="40" as="geometry" />
        </mxCell>
        <mxCell id="_Uupg-VD3XOYHBeuDL6Q-160" value="" style="whiteSpace=wrap;html=1;aspect=fixed;fillColor=#6B9455;" parent="1" vertex="1">
          <mxGeometry x="199" y="320" width="40" height="40" as="geometry" />
        </mxCell>
        <mxCell id="_Uupg-VD3XOYHBeuDL6Q-161" value="" style="whiteSpace=wrap;html=1;aspect=fixed;fillColor=#6B9455;" parent="1" vertex="1">
          <mxGeometry x="239" y="320" width="40" height="40" as="geometry" />
        </mxCell>
        <mxCell id="_Uupg-VD3XOYHBeuDL6Q-162" value="" style="whiteSpace=wrap;html=1;aspect=fixed;" parent="1" vertex="1">
          <mxGeometry x="-1" y="360" width="40" height="40" as="geometry" />
        </mxCell>
        <mxCell id="_Uupg-VD3XOYHBeuDL6Q-163" value="" style="whiteSpace=wrap;html=1;aspect=fixed;" parent="1" vertex="1">
          <mxGeometry x="39" y="360" width="40" height="40" as="geometry" />
        </mxCell>
        <mxCell id="_Uupg-VD3XOYHBeuDL6Q-164" value="" style="whiteSpace=wrap;html=1;aspect=fixed;fillColor=#6B9455;" parent="1" vertex="1">
          <mxGeometry x="79" y="360" width="40" height="40" as="geometry" />
        </mxCell>
        <mxCell id="_Uupg-VD3XOYHBeuDL6Q-165" value="" style="whiteSpace=wrap;html=1;aspect=fixed;fillColor=#994C00;" parent="1" vertex="1">
          <mxGeometry x="119" y="360" width="40" height="40" as="geometry" />
        </mxCell>
        <mxCell id="_Uupg-VD3XOYHBeuDL6Q-166" value="" style="whiteSpace=wrap;html=1;aspect=fixed;fillColor=#994C00;" parent="1" vertex="1">
          <mxGeometry x="159" y="360" width="40" height="40" as="geometry" />
        </mxCell>
        <mxCell id="_Uupg-VD3XOYHBeuDL6Q-167" value="" style="whiteSpace=wrap;html=1;aspect=fixed;" parent="1" vertex="1">
          <mxGeometry x="279" y="360" width="40" height="40" as="geometry" />
        </mxCell>
        <mxCell id="_Uupg-VD3XOYHBeuDL6Q-168" value="" style="whiteSpace=wrap;html=1;aspect=fixed;fillColor=#6B9455;" parent="1" vertex="1">
          <mxGeometry x="199" y="360" width="40" height="40" as="geometry" />
        </mxCell>
        <mxCell id="_Uupg-VD3XOYHBeuDL6Q-169" value="" style="whiteSpace=wrap;html=1;aspect=fixed;" parent="1" vertex="1">
          <mxGeometry x="239" y="360" width="40" height="40" as="geometry" />
        </mxCell>
        <mxCell id="_Uupg-VD3XOYHBeuDL6Q-170" value="" style="whiteSpace=wrap;html=1;aspect=fixed;" parent="1" vertex="1">
          <mxGeometry x="-1" y="400" width="40" height="40" as="geometry" />
        </mxCell>
        <mxCell id="_Uupg-VD3XOYHBeuDL6Q-171" value="" style="whiteSpace=wrap;html=1;aspect=fixed;" parent="1" vertex="1">
          <mxGeometry x="39" y="400" width="40" height="40" as="geometry" />
        </mxCell>
        <mxCell id="_Uupg-VD3XOYHBeuDL6Q-172" value="" style="whiteSpace=wrap;html=1;aspect=fixed;" parent="1" vertex="1">
          <mxGeometry x="79" y="400" width="40" height="40" as="geometry" />
        </mxCell>
        <mxCell id="_Uupg-VD3XOYHBeuDL6Q-173" value="" style="whiteSpace=wrap;html=1;aspect=fixed;fillColor=#994C00;" parent="1" vertex="1">
          <mxGeometry x="119" y="400" width="40" height="40" as="geometry" />
        </mxCell>
        <mxCell id="_Uupg-VD3XOYHBeuDL6Q-174" value="" style="whiteSpace=wrap;html=1;aspect=fixed;fillColor=#994C00;" parent="1" vertex="1">
          <mxGeometry x="159" y="400" width="40" height="40" as="geometry" />
        </mxCell>
        <mxCell id="_Uupg-VD3XOYHBeuDL6Q-175" value="" style="whiteSpace=wrap;html=1;aspect=fixed;" parent="1" vertex="1">
          <mxGeometry x="279" y="400" width="40" height="40" as="geometry" />
        </mxCell>
        <mxCell id="_Uupg-VD3XOYHBeuDL6Q-176" value="" style="whiteSpace=wrap;html=1;aspect=fixed;" parent="1" vertex="1">
          <mxGeometry x="199" y="400" width="40" height="40" as="geometry" />
        </mxCell>
        <mxCell id="_Uupg-VD3XOYHBeuDL6Q-177" value="" style="whiteSpace=wrap;html=1;aspect=fixed;" parent="1" vertex="1">
          <mxGeometry x="239" y="400" width="40" height="40" as="geometry" />
        </mxCell>
        <mxCell id="_Uupg-VD3XOYHBeuDL6Q-178" value="" style="whiteSpace=wrap;html=1;aspect=fixed;" parent="1" vertex="1">
          <mxGeometry x="-1" y="440" width="40" height="40" as="geometry" />
        </mxCell>
        <mxCell id="_Uupg-VD3XOYHBeuDL6Q-179" value="" style="whiteSpace=wrap;html=1;aspect=fixed;" parent="1" vertex="1">
          <mxGeometry x="39" y="440" width="40" height="40" as="geometry" />
        </mxCell>
        <mxCell id="_Uupg-VD3XOYHBeuDL6Q-180" value="" style="whiteSpace=wrap;html=1;aspect=fixed;" parent="1" vertex="1">
          <mxGeometry x="79" y="440" width="40" height="40" as="geometry" />
        </mxCell>
        <mxCell id="_Uupg-VD3XOYHBeuDL6Q-181" value="" style="whiteSpace=wrap;html=1;aspect=fixed;fillColor=#994C00;" parent="1" vertex="1">
          <mxGeometry x="119" y="440" width="40" height="40" as="geometry" />
        </mxCell>
        <mxCell id="_Uupg-VD3XOYHBeuDL6Q-182" value="" style="whiteSpace=wrap;html=1;aspect=fixed;fillColor=#994C00;" parent="1" vertex="1">
          <mxGeometry x="159" y="440" width="40" height="40" as="geometry" />
        </mxCell>
        <mxCell id="_Uupg-VD3XOYHBeuDL6Q-183" value="" style="whiteSpace=wrap;html=1;aspect=fixed;" parent="1" vertex="1">
          <mxGeometry x="279" y="440" width="40" height="40" as="geometry" />
        </mxCell>
        <mxCell id="_Uupg-VD3XOYHBeuDL6Q-184" value="" style="whiteSpace=wrap;html=1;aspect=fixed;" parent="1" vertex="1">
          <mxGeometry x="199" y="440" width="40" height="40" as="geometry" />
        </mxCell>
        <mxCell id="_Uupg-VD3XOYHBeuDL6Q-185" value="" style="whiteSpace=wrap;html=1;aspect=fixed;" parent="1" vertex="1">
          <mxGeometry x="239" y="440" width="40" height="40" as="geometry" />
        </mxCell>
        <mxCell id="_Uupg-VD3XOYHBeuDL6Q-186" value="" style="whiteSpace=wrap;html=1;aspect=fixed;fillColor=#CAD100;" parent="1" vertex="1">
          <mxGeometry x="-1" y="480" width="40" height="40" as="geometry" />
        </mxCell>
        <mxCell id="_Uupg-VD3XOYHBeuDL6Q-187" value="" style="whiteSpace=wrap;html=1;aspect=fixed;fillColor=#CAD100;" parent="1" vertex="1">
          <mxGeometry x="39" y="480" width="40" height="40" as="geometry" />
        </mxCell>
        <mxCell id="_Uupg-VD3XOYHBeuDL6Q-188" value="" style="whiteSpace=wrap;html=1;aspect=fixed;fillColor=#CAD100;" parent="1" vertex="1">
          <mxGeometry x="79" y="480" width="40" height="40" as="geometry" />
        </mxCell>
        <mxCell id="_Uupg-VD3XOYHBeuDL6Q-189" value="" style="whiteSpace=wrap;html=1;aspect=fixed;fillColor=#CAD100;" parent="1" vertex="1">
          <mxGeometry x="119" y="480" width="40" height="40" as="geometry" />
        </mxCell>
        <mxCell id="_Uupg-VD3XOYHBeuDL6Q-190" value="" style="whiteSpace=wrap;html=1;aspect=fixed;fillColor=#CAD100;" parent="1" vertex="1">
          <mxGeometry x="159" y="480" width="40" height="40" as="geometry" />
        </mxCell>
        <mxCell id="_Uupg-VD3XOYHBeuDL6Q-191" value="" style="whiteSpace=wrap;html=1;aspect=fixed;fillColor=#CAD100;" parent="1" vertex="1">
          <mxGeometry x="279" y="480" width="40" height="40" as="geometry" />
        </mxCell>
        <mxCell id="_Uupg-VD3XOYHBeuDL6Q-192" value="" style="whiteSpace=wrap;html=1;aspect=fixed;fillColor=#CAD100;" parent="1" vertex="1">
          <mxGeometry x="199" y="480" width="40" height="40" as="geometry" />
        </mxCell>
        <mxCell id="_Uupg-VD3XOYHBeuDL6Q-193" value="" style="whiteSpace=wrap;html=1;aspect=fixed;fillColor=#CAD100;" parent="1" vertex="1">
          <mxGeometry x="239" y="480" width="40" height="40" as="geometry" />
        </mxCell>
        <mxCell id="_Uupg-VD3XOYHBeuDL6Q-194" value="" style="whiteSpace=wrap;html=1;aspect=fixed;fillColor=#CAD100;" parent="1" vertex="1">
          <mxGeometry x="-1" y="520" width="40" height="40" as="geometry" />
        </mxCell>
        <mxCell id="_Uupg-VD3XOYHBeuDL6Q-195" value="" style="whiteSpace=wrap;html=1;aspect=fixed;fillColor=#CAD100;" parent="1" vertex="1">
          <mxGeometry x="39" y="520" width="40" height="40" as="geometry" />
        </mxCell>
        <mxCell id="_Uupg-VD3XOYHBeuDL6Q-196" value="" style="whiteSpace=wrap;html=1;aspect=fixed;fillColor=#CAD100;" parent="1" vertex="1">
          <mxGeometry x="79" y="520" width="40" height="40" as="geometry" />
        </mxCell>
        <mxCell id="_Uupg-VD3XOYHBeuDL6Q-197" value="" style="whiteSpace=wrap;html=1;aspect=fixed;fillColor=#CAD100;" parent="1" vertex="1">
          <mxGeometry x="119" y="520" width="40" height="40" as="geometry" />
        </mxCell>
        <mxCell id="_Uupg-VD3XOYHBeuDL6Q-198" value="" style="whiteSpace=wrap;html=1;aspect=fixed;fillColor=#CAD100;" parent="1" vertex="1">
          <mxGeometry x="159" y="520" width="40" height="40" as="geometry" />
        </mxCell>
        <mxCell id="_Uupg-VD3XOYHBeuDL6Q-199" value="" style="whiteSpace=wrap;html=1;aspect=fixed;fillColor=#CAD100;" parent="1" vertex="1">
          <mxGeometry x="279" y="520" width="40" height="40" as="geometry" />
        </mxCell>
        <mxCell id="_Uupg-VD3XOYHBeuDL6Q-200" value="" style="whiteSpace=wrap;html=1;aspect=fixed;fillColor=#CAD100;" parent="1" vertex="1">
          <mxGeometry x="199" y="520" width="40" height="40" as="geometry" />
        </mxCell>
        <mxCell id="_Uupg-VD3XOYHBeuDL6Q-201" value="" style="whiteSpace=wrap;html=1;aspect=fixed;fillColor=#CAD100;" parent="1" vertex="1">
          <mxGeometry x="239" y="520" width="40" height="40" as="geometry" />
        </mxCell>
        <mxCell id="UrCvd_fzHzuH97xi6uEA-2" value="" style="shape=umlDestroy;whiteSpace=wrap;html=1;strokeWidth=3;targetShapes=umlLifeline;fillColor=#CC0066;strokeColor=#CC0066;" parent="1" vertex="1">
          <mxGeometry x="84" y="365" width="30" height="30" as="geometry" />
        </mxCell>
        <mxCell id="UrCvd_fzHzuH97xi6uEA-3" value="" style="whiteSpace=wrap;html=1;aspect=fixed;fillColor=#6B9455;" parent="1" vertex="1">
          <mxGeometry x="440" y="240" width="40" height="40" as="geometry" />
        </mxCell>
        <mxCell id="UrCvd_fzHzuH97xi6uEA-4" value="" style="whiteSpace=wrap;html=1;aspect=fixed;fillColor=#6B9455;" parent="1" vertex="1">
          <mxGeometry x="480" y="240" width="40" height="40" as="geometry" />
        </mxCell>
        <mxCell id="UrCvd_fzHzuH97xi6uEA-5" value="" style="whiteSpace=wrap;html=1;aspect=fixed;fillColor=#6B9455;" parent="1" vertex="1">
          <mxGeometry x="520" y="240" width="40" height="40" as="geometry" />
        </mxCell>
        <mxCell id="UrCvd_fzHzuH97xi6uEA-6" value="" style="whiteSpace=wrap;html=1;aspect=fixed;" parent="1" vertex="1">
          <mxGeometry x="640" y="240" width="40" height="40" as="geometry" />
        </mxCell>
        <mxCell id="UrCvd_fzHzuH97xi6uEA-7" value="" style="whiteSpace=wrap;html=1;aspect=fixed;fillColor=#6B9455;" parent="1" vertex="1">
          <mxGeometry x="560" y="240" width="40" height="40" as="geometry" />
        </mxCell>
        <mxCell id="UrCvd_fzHzuH97xi6uEA-8" value="" style="whiteSpace=wrap;html=1;aspect=fixed;" parent="1" vertex="1">
          <mxGeometry x="600" y="240" width="40" height="40" as="geometry" />
        </mxCell>
        <mxCell id="UrCvd_fzHzuH97xi6uEA-9" value="" style="whiteSpace=wrap;html=1;aspect=fixed;fillColor=#6B9455;" parent="1" vertex="1">
          <mxGeometry x="440" y="280" width="40" height="40" as="geometry" />
        </mxCell>
        <mxCell id="UrCvd_fzHzuH97xi6uEA-10" value="" style="whiteSpace=wrap;html=1;aspect=fixed;fillColor=#6B9455;" parent="1" vertex="1">
          <mxGeometry x="480" y="280" width="40" height="40" as="geometry" />
        </mxCell>
        <mxCell id="UrCvd_fzHzuH97xi6uEA-11" value="" style="whiteSpace=wrap;html=1;aspect=fixed;fillColor=#6B9455;" parent="1" vertex="1">
          <mxGeometry x="520" y="280" width="40" height="40" as="geometry" />
        </mxCell>
        <mxCell id="UrCvd_fzHzuH97xi6uEA-12" value="" style="whiteSpace=wrap;html=1;aspect=fixed;" parent="1" vertex="1">
          <mxGeometry x="640" y="280" width="40" height="40" as="geometry" />
        </mxCell>
        <mxCell id="UrCvd_fzHzuH97xi6uEA-13" value="" style="whiteSpace=wrap;html=1;aspect=fixed;fillColor=#6B9455;" parent="1" vertex="1">
          <mxGeometry x="560" y="280" width="40" height="40" as="geometry" />
        </mxCell>
        <mxCell id="UrCvd_fzHzuH97xi6uEA-14" value="" style="whiteSpace=wrap;html=1;aspect=fixed;fillColor=#6B9455;" parent="1" vertex="1">
          <mxGeometry x="600" y="280" width="40" height="40" as="geometry" />
        </mxCell>
        <mxCell id="UrCvd_fzHzuH97xi6uEA-15" value="" style="whiteSpace=wrap;html=1;aspect=fixed;fillColor=#6B9455;" parent="1" vertex="1">
          <mxGeometry x="440" y="320" width="40" height="40" as="geometry" />
        </mxCell>
        <mxCell id="UrCvd_fzHzuH97xi6uEA-16" value="" style="whiteSpace=wrap;html=1;aspect=fixed;fillColor=#6B9455;" parent="1" vertex="1">
          <mxGeometry x="480" y="320" width="40" height="40" as="geometry" />
        </mxCell>
        <mxCell id="UrCvd_fzHzuH97xi6uEA-17" value="" style="whiteSpace=wrap;html=1;aspect=fixed;fillColor=#6B9455;" parent="1" vertex="1">
          <mxGeometry x="520" y="320" width="40" height="40" as="geometry" />
        </mxCell>
        <mxCell id="UrCvd_fzHzuH97xi6uEA-18" value="" style="whiteSpace=wrap;html=1;aspect=fixed;" parent="1" vertex="1">
          <mxGeometry x="640" y="320" width="40" height="40" as="geometry" />
        </mxCell>
        <mxCell id="UrCvd_fzHzuH97xi6uEA-19" value="" style="whiteSpace=wrap;html=1;aspect=fixed;fillColor=#6B9455;" parent="1" vertex="1">
          <mxGeometry x="560" y="320" width="40" height="40" as="geometry" />
        </mxCell>
        <mxCell id="UrCvd_fzHzuH97xi6uEA-20" value="" style="whiteSpace=wrap;html=1;aspect=fixed;fillColor=#6B9455;" parent="1" vertex="1">
          <mxGeometry x="600" y="320" width="40" height="40" as="geometry" />
        </mxCell>
        <mxCell id="UrCvd_fzHzuH97xi6uEA-21" value="" style="whiteSpace=wrap;html=1;aspect=fixed;fillColor=#6B9455;" parent="1" vertex="1">
          <mxGeometry x="440" y="360" width="40" height="40" as="geometry" />
        </mxCell>
        <mxCell id="UrCvd_fzHzuH97xi6uEA-22" value="" style="whiteSpace=wrap;html=1;aspect=fixed;fillColor=#994C00;" parent="1" vertex="1">
          <mxGeometry x="480" y="360" width="40" height="40" as="geometry" />
        </mxCell>
        <mxCell id="UrCvd_fzHzuH97xi6uEA-23" value="" style="whiteSpace=wrap;html=1;aspect=fixed;fillColor=#994C00;" parent="1" vertex="1">
          <mxGeometry x="520" y="360" width="40" height="40" as="geometry" />
        </mxCell>
        <mxCell id="UrCvd_fzHzuH97xi6uEA-24" value="" style="whiteSpace=wrap;html=1;aspect=fixed;" parent="1" vertex="1">
          <mxGeometry x="640" y="360" width="40" height="40" as="geometry" />
        </mxCell>
        <mxCell id="UrCvd_fzHzuH97xi6uEA-25" value="" style="whiteSpace=wrap;html=1;aspect=fixed;fillColor=#6B9455;" parent="1" vertex="1">
          <mxGeometry x="560" y="360" width="40" height="40" as="geometry" />
        </mxCell>
        <mxCell id="UrCvd_fzHzuH97xi6uEA-26" value="" style="whiteSpace=wrap;html=1;aspect=fixed;" parent="1" vertex="1">
          <mxGeometry x="600" y="360" width="40" height="40" as="geometry" />
        </mxCell>
        <mxCell id="UrCvd_fzHzuH97xi6uEA-27" value="" style="whiteSpace=wrap;html=1;aspect=fixed;" parent="1" vertex="1">
          <mxGeometry x="440" y="400" width="40" height="40" as="geometry" />
        </mxCell>
        <mxCell id="UrCvd_fzHzuH97xi6uEA-28" value="" style="whiteSpace=wrap;html=1;aspect=fixed;fillColor=#994C00;" parent="1" vertex="1">
          <mxGeometry x="480" y="400" width="40" height="40" as="geometry" />
        </mxCell>
        <mxCell id="UrCvd_fzHzuH97xi6uEA-29" value="" style="whiteSpace=wrap;html=1;aspect=fixed;fillColor=#994C00;" parent="1" vertex="1">
          <mxGeometry x="520" y="400" width="40" height="40" as="geometry" />
        </mxCell>
        <mxCell id="UrCvd_fzHzuH97xi6uEA-30" value="" style="whiteSpace=wrap;html=1;aspect=fixed;" parent="1" vertex="1">
          <mxGeometry x="640" y="400" width="40" height="40" as="geometry" />
        </mxCell>
        <mxCell id="UrCvd_fzHzuH97xi6uEA-31" value="" style="whiteSpace=wrap;html=1;aspect=fixed;" parent="1" vertex="1">
          <mxGeometry x="560" y="400" width="40" height="40" as="geometry" />
        </mxCell>
        <mxCell id="UrCvd_fzHzuH97xi6uEA-32" value="" style="whiteSpace=wrap;html=1;aspect=fixed;" parent="1" vertex="1">
          <mxGeometry x="600" y="400" width="40" height="40" as="geometry" />
        </mxCell>
        <mxCell id="UrCvd_fzHzuH97xi6uEA-33" value="" style="whiteSpace=wrap;html=1;aspect=fixed;" parent="1" vertex="1">
          <mxGeometry x="440" y="440" width="40" height="40" as="geometry" />
        </mxCell>
        <mxCell id="UrCvd_fzHzuH97xi6uEA-34" value="" style="whiteSpace=wrap;html=1;aspect=fixed;fillColor=#994C00;" parent="1" vertex="1">
          <mxGeometry x="480" y="440" width="40" height="40" as="geometry" />
        </mxCell>
        <mxCell id="UrCvd_fzHzuH97xi6uEA-35" value="" style="whiteSpace=wrap;html=1;aspect=fixed;fillColor=#994C00;" parent="1" vertex="1">
          <mxGeometry x="520" y="440" width="40" height="40" as="geometry" />
        </mxCell>
        <mxCell id="UrCvd_fzHzuH97xi6uEA-36" value="" style="whiteSpace=wrap;html=1;aspect=fixed;" parent="1" vertex="1">
          <mxGeometry x="640" y="440" width="40" height="40" as="geometry" />
        </mxCell>
        <mxCell id="UrCvd_fzHzuH97xi6uEA-37" value="" style="whiteSpace=wrap;html=1;aspect=fixed;" parent="1" vertex="1">
          <mxGeometry x="560" y="440" width="40" height="40" as="geometry" />
        </mxCell>
        <mxCell id="UrCvd_fzHzuH97xi6uEA-38" value="" style="whiteSpace=wrap;html=1;aspect=fixed;" parent="1" vertex="1">
          <mxGeometry x="600" y="440" width="40" height="40" as="geometry" />
        </mxCell>
        <mxCell id="UrCvd_fzHzuH97xi6uEA-39" value="" style="whiteSpace=wrap;html=1;aspect=fixed;fillColor=#CAD100;" parent="1" vertex="1">
          <mxGeometry x="440" y="480" width="40" height="40" as="geometry" />
        </mxCell>
        <mxCell id="UrCvd_fzHzuH97xi6uEA-40" value="" style="whiteSpace=wrap;html=1;aspect=fixed;fillColor=#CAD100;" parent="1" vertex="1">
          <mxGeometry x="480" y="480" width="40" height="40" as="geometry" />
        </mxCell>
        <mxCell id="UrCvd_fzHzuH97xi6uEA-41" value="" style="whiteSpace=wrap;html=1;aspect=fixed;fillColor=#CAD100;" parent="1" vertex="1">
          <mxGeometry x="520" y="480" width="40" height="40" as="geometry" />
        </mxCell>
        <mxCell id="UrCvd_fzHzuH97xi6uEA-42" value="" style="whiteSpace=wrap;html=1;aspect=fixed;fillColor=#CAD100;" parent="1" vertex="1">
          <mxGeometry x="640" y="480" width="40" height="40" as="geometry" />
        </mxCell>
        <mxCell id="UrCvd_fzHzuH97xi6uEA-43" value="" style="whiteSpace=wrap;html=1;aspect=fixed;fillColor=#CAD100;" parent="1" vertex="1">
          <mxGeometry x="560" y="480" width="40" height="40" as="geometry" />
        </mxCell>
        <mxCell id="UrCvd_fzHzuH97xi6uEA-44" value="" style="whiteSpace=wrap;html=1;aspect=fixed;fillColor=#CAD100;" parent="1" vertex="1">
          <mxGeometry x="600" y="480" width="40" height="40" as="geometry" />
        </mxCell>
        <mxCell id="UrCvd_fzHzuH97xi6uEA-45" value="" style="whiteSpace=wrap;html=1;aspect=fixed;fillColor=#CAD100;" parent="1" vertex="1">
          <mxGeometry x="440" y="520" width="40" height="40" as="geometry" />
        </mxCell>
        <mxCell id="UrCvd_fzHzuH97xi6uEA-46" value="" style="whiteSpace=wrap;html=1;aspect=fixed;fillColor=#CAD100;" parent="1" vertex="1">
          <mxGeometry x="480" y="520" width="40" height="40" as="geometry" />
        </mxCell>
        <mxCell id="UrCvd_fzHzuH97xi6uEA-47" value="" style="whiteSpace=wrap;html=1;aspect=fixed;fillColor=#CAD100;" parent="1" vertex="1">
          <mxGeometry x="520" y="520" width="40" height="40" as="geometry" />
        </mxCell>
        <mxCell id="UrCvd_fzHzuH97xi6uEA-48" value="" style="whiteSpace=wrap;html=1;aspect=fixed;fillColor=#CAD100;" parent="1" vertex="1">
          <mxGeometry x="640" y="520" width="40" height="40" as="geometry" />
        </mxCell>
        <mxCell id="UrCvd_fzHzuH97xi6uEA-49" value="" style="whiteSpace=wrap;html=1;aspect=fixed;fillColor=#CAD100;" parent="1" vertex="1">
          <mxGeometry x="560" y="520" width="40" height="40" as="geometry" />
        </mxCell>
        <mxCell id="UrCvd_fzHzuH97xi6uEA-50" value="" style="whiteSpace=wrap;html=1;aspect=fixed;fillColor=#CAD100;" parent="1" vertex="1">
          <mxGeometry x="600" y="520" width="40" height="40" as="geometry" />
        </mxCell>
        <mxCell id="UrCvd_fzHzuH97xi6uEA-51" value="" style="whiteSpace=wrap;html=1;aspect=fixed;" parent="1" vertex="1">
          <mxGeometry x="680" y="240" width="40" height="40" as="geometry" />
        </mxCell>
        <mxCell id="UrCvd_fzHzuH97xi6uEA-52" value="" style="whiteSpace=wrap;html=1;aspect=fixed;" parent="1" vertex="1">
          <mxGeometry x="680" y="280" width="40" height="40" as="geometry" />
        </mxCell>
        <mxCell id="UrCvd_fzHzuH97xi6uEA-53" value="" style="whiteSpace=wrap;html=1;aspect=fixed;" parent="1" vertex="1">
          <mxGeometry x="680" y="320" width="40" height="40" as="geometry" />
        </mxCell>
        <mxCell id="UrCvd_fzHzuH97xi6uEA-54" value="" style="whiteSpace=wrap;html=1;aspect=fixed;" parent="1" vertex="1">
          <mxGeometry x="680" y="360" width="40" height="40" as="geometry" />
        </mxCell>
        <mxCell id="UrCvd_fzHzuH97xi6uEA-55" value="" style="whiteSpace=wrap;html=1;aspect=fixed;" parent="1" vertex="1">
          <mxGeometry x="680" y="400" width="40" height="40" as="geometry" />
        </mxCell>
        <mxCell id="UrCvd_fzHzuH97xi6uEA-56" value="" style="whiteSpace=wrap;html=1;aspect=fixed;" parent="1" vertex="1">
          <mxGeometry x="680" y="440" width="40" height="40" as="geometry" />
        </mxCell>
        <mxCell id="UrCvd_fzHzuH97xi6uEA-57" value="" style="whiteSpace=wrap;html=1;aspect=fixed;fillColor=#CAD100;" parent="1" vertex="1">
          <mxGeometry x="680" y="480" width="40" height="40" as="geometry" />
        </mxCell>
        <mxCell id="UrCvd_fzHzuH97xi6uEA-58" value="" style="whiteSpace=wrap;html=1;aspect=fixed;fillColor=#CAD100;" parent="1" vertex="1">
          <mxGeometry x="680" y="520" width="40" height="40" as="geometry" />
        </mxCell>
        <mxCell id="UrCvd_fzHzuH97xi6uEA-59" value="" style="whiteSpace=wrap;html=1;aspect=fixed;" parent="1" vertex="1">
          <mxGeometry x="720" y="240" width="40" height="40" as="geometry" />
        </mxCell>
        <mxCell id="UrCvd_fzHzuH97xi6uEA-60" value="" style="whiteSpace=wrap;html=1;aspect=fixed;" parent="1" vertex="1">
          <mxGeometry x="720" y="280" width="40" height="40" as="geometry" />
        </mxCell>
        <mxCell id="UrCvd_fzHzuH97xi6uEA-61" value="" style="whiteSpace=wrap;html=1;aspect=fixed;" parent="1" vertex="1">
          <mxGeometry x="720" y="320" width="40" height="40" as="geometry" />
        </mxCell>
        <mxCell id="UrCvd_fzHzuH97xi6uEA-62" value="" style="whiteSpace=wrap;html=1;aspect=fixed;" parent="1" vertex="1">
          <mxGeometry x="720" y="360" width="40" height="40" as="geometry" />
        </mxCell>
        <mxCell id="UrCvd_fzHzuH97xi6uEA-63" value="" style="whiteSpace=wrap;html=1;aspect=fixed;fillColor=#FF3333;" parent="1" vertex="1">
          <mxGeometry x="720" y="400" width="40" height="40" as="geometry" />
        </mxCell>
        <mxCell id="UrCvd_fzHzuH97xi6uEA-64" value="" style="whiteSpace=wrap;html=1;aspect=fixed;fillColor=#FF3333;" parent="1" vertex="1">
          <mxGeometry x="720" y="440" width="40" height="40" as="geometry" />
        </mxCell>
        <mxCell id="UrCvd_fzHzuH97xi6uEA-65" value="" style="whiteSpace=wrap;html=1;aspect=fixed;fillColor=#CAD100;" parent="1" vertex="1">
          <mxGeometry x="720" y="480" width="40" height="40" as="geometry" />
        </mxCell>
        <mxCell id="UrCvd_fzHzuH97xi6uEA-66" value="" style="whiteSpace=wrap;html=1;aspect=fixed;fillColor=#CAD100;" parent="1" vertex="1">
          <mxGeometry x="720" y="520" width="40" height="40" as="geometry" />
        </mxCell>
        <mxCell id="UrCvd_fzHzuH97xi6uEA-67" value="" style="shape=umlDestroy;whiteSpace=wrap;html=1;strokeWidth=3;targetShapes=umlLifeline;fillColor=#CC0066;strokeColor=#CC0066;" parent="1" vertex="1">
          <mxGeometry x="39" y="650" width="30" height="30" as="geometry" />
        </mxCell>
        <mxCell id="UrCvd_fzHzuH97xi6uEA-69" value="&lt;b&gt;Left image&lt;br&gt;&lt;/b&gt;" style="rounded=0;whiteSpace=wrap;html=1;strokeColor=#ffffff;opacity=0;" parent="1" vertex="1">
          <mxGeometry x="100" y="570" width="130" height="30" as="geometry" />
        </mxCell>
        <mxCell id="UrCvd_fzHzuH97xi6uEA-70" value="&lt;b&gt;Right image&lt;br&gt;&lt;/b&gt;" style="rounded=0;whiteSpace=wrap;html=1;strokeColor=#ffffff;opacity=0;" parent="1" vertex="1">
          <mxGeometry x="540" y="570" width="130" height="30" as="geometry" />
        </mxCell>
        <mxCell id="UrCvd_fzHzuH97xi6uEA-71" value="&lt;b&gt;Point i,j in the left image&lt;br&gt;&lt;/b&gt;" style="rounded=0;whiteSpace=wrap;html=1;strokeColor=#ffffff;opacity=0;align=left;" parent="1" vertex="1">
          <mxGeometry x="84" y="650" width="180" height="30" as="geometry" />
        </mxCell>
        <mxCell id="UrCvd_fzHzuH97xi6uEA-76" value="" style="shape=umlDestroy;whiteSpace=wrap;html=1;strokeWidth=3;targetShapes=umlLifeline;fillColor=#33FFFF;strokeColor=#1008FF;" parent="1" vertex="1">
          <mxGeometry x="443" y="650" width="30" height="30" as="geometry" />
        </mxCell>
        <mxCell id="UrCvd_fzHzuH97xi6uEA-77" value="&lt;b&gt;Point i,j in the right image with disparity applied&lt;br&gt;&lt;/b&gt;" style="rounded=0;whiteSpace=wrap;html=1;strokeColor=#ffffff;opacity=0;align=left;" parent="1" vertex="1">
          <mxGeometry x="481" y="650" width="275" height="30" as="geometry" />
        </mxCell>
        <mxCell id="UrCvd_fzHzuH97xi6uEA-80" value="" style="rounded=0;whiteSpace=wrap;html=1;fillColor=#FF8000;strokeColor=#FF8000;" parent="1" vertex="1">
          <mxGeometry x="400" y="375" width="200" height="10" as="geometry" />
        </mxCell>
        <mxCell id="UrCvd_fzHzuH97xi6uEA-78" value="" style="shape=umlDestroy;whiteSpace=wrap;html=1;strokeWidth=3;targetShapes=umlLifeline;fillColor=#33FFFF;strokeColor=#1008FF;" parent="1" vertex="1">
          <mxGeometry x="526" y="365" width="30" height="30" as="geometry" />
        </mxCell>
        <mxCell id="UrCvd_fzHzuH97xi6uEA-81" value="&lt;b style=&quot;font-size: 24px;&quot;&gt;DISPARITY = 0&lt;br&gt;&lt;/b&gt;" style="rounded=0;whiteSpace=wrap;html=1;strokeColor=#ffffff;opacity=0;align=left;" parent="1" vertex="1">
          <mxGeometry x="296" y="190" width="190" height="30" as="geometry" />
        </mxCell>
      </root>
    </mxGraphModel>
  </diagram>
</mxfile>
